<svg width="217" height="75" viewBox="0 0 217 75" fill="none" xmlns="http://www.w3.org/2000/svg">
<mask id="mask0" mask-type="alpha" maskUnits="userSpaceOnUse" x="0" y="0" width="74" height="75">
<path d="M0 0H73.4201V75H0V0Z" fill="white"/>
</mask>
<g mask="url(#mask0)">
<path fill-rule="evenodd" clip-rule="evenodd" d="M73.4185 37.485C73.4185 49.8315 73.4187 62.1781 73.4174 74.5246C73.4174 75.0644 73.484 74.9962 72.9521 74.9962C48.786 74.9974 24.6198 74.9974 0.453769 74.9962C-0.0481601 74.9962 0.00134375 75.0718 0.00134375 74.5507C0.000618423 49.8454 0.000799756 25.14 0.000799756 0.434736C0.000799756 0.397512 0.000799756 0.360289 0.000799756 0.323065C0.000255757 -0.013431 -0.0191469 -0.000282333 0.316319 8.80528e-05C0.401364 0.000273246 0.486409 8.80528e-05 0.571273 8.80528e-05H72.8511C73.4183 8.80528e-05 73.4183 0.000273259 73.4183 0.594373C73.4183 12.8912 73.4185 25.1882 73.4185 37.485Z" fill="#FEF100"/>
</g>
<path fill-rule="evenodd" clip-rule="evenodd" d="M49.2931 31.7305C48.9079 32.6853 48.5196 33.6393 48.1383 34.596C47.5752 36.0091 47.0165 37.4242 46.4576 38.839C46.4128 38.9524 46.3817 39.0713 46.3442 39.1875C46.4214 39.352 46.347 39.5005 46.2901 39.6472C45.7634 41.007 45.2007 42.3521 44.683 43.7154C44.6283 43.8593 44.5464 43.9736 44.4078 44.0431C43.9738 45.1259 43.5389 46.2081 43.1063 47.2911C42.801 48.055 42.4981 48.8202 42.1963 49.5858C42.1515 49.6996 42.1187 49.8183 42.0805 49.9346C42.1639 50.1122 42.0802 50.2703 42.0184 50.4276C41.5758 51.5532 41.1163 52.6724 40.682 53.8012C40.6282 53.9412 40.5637 54.0705 40.4163 54.1341C40.0797 54.8557 39.813 55.6062 39.519 56.3456C38.2154 59.6253 36.9164 62.9068 35.6151 66.1873C35.5837 66.2666 35.5422 66.3417 35.5054 66.4189C35.3608 66.4255 35.3915 66.3414 35.4224 66.2572C35.5798 65.4258 35.7312 64.5936 35.8956 63.7637C36.5411 60.5029 37.1905 57.243 37.8375 53.9824C37.8492 53.9229 37.847 53.8604 37.8512 53.7993C37.7579 53.6529 37.7753 53.4959 37.8078 53.3374C38.0643 52.092 38.2958 50.8421 38.5369 49.5939C38.5781 49.3808 38.5991 49.1513 38.7965 49.0048C38.983 48.332 39.0858 47.6415 39.2249 46.9588C39.5276 45.4724 39.8172 43.9832 40.111 42.4947C40.1203 42.4475 40.1178 42.3977 40.1203 42.349C39.9909 42.1771 40.0629 41.9931 40.0973 41.8167C40.2432 41.0695 40.3937 40.323 40.5408 39.5762C40.5666 39.4463 40.6176 39.3165 40.5547 39.1391C39.9189 39.399 39.3002 39.6854 38.6775 39.9606C35.5785 41.3301 32.4805 42.7013 29.3837 44.0751C29.1954 44.1585 28.9967 44.1144 28.8131 44.1819C28.2917 44.3591 27.8005 44.6079 27.2977 44.8292C25.3293 45.6959 23.3635 46.5686 21.3963 47.4384C21.2742 47.4922 21.1499 47.5409 21.0133 47.5974C20.9352 47.4452 21.0261 47.3257 21.0621 47.2097C21.549 45.6391 22.0422 44.0703 22.5327 42.5008C22.5764 42.3607 22.6112 42.2177 22.6501 42.0762C22.5525 41.9211 22.6093 41.767 22.6569 41.615C23.0402 40.3857 23.4353 39.1597 23.8053 37.926C23.866 37.7236 23.9401 37.5314 24.1116 37.3945C24.3739 36.7076 24.5651 35.9973 24.7867 35.2969C25.1639 34.1054 25.5339 32.9116 25.9057 31.7185C25.9273 31.6489 25.9397 31.5763 25.9566 31.5051C25.89 31.3478 25.9182 31.1939 25.967 31.0381C26.3527 29.8095 26.7449 28.5828 27.1166 27.3496C27.1736 27.1601 27.2389 26.9754 27.4116 26.8557C27.7202 26.0137 27.9636 25.1508 28.2316 24.2961C29.6356 19.8202 31.034 15.3429 32.4342 10.8659C32.4562 10.7957 32.4819 10.7264 32.4993 10.6549C32.5339 10.5113 32.6224 10.4525 32.7666 10.4674C32.8149 10.4725 32.8642 10.4678 32.9132 10.4678H41.6825H41.9778C42.0224 10.6326 41.9284 10.7442 41.8783 10.8609C40.2116 14.7552 38.5419 18.6482 36.8725 22.5413C36.466 23.4891 36.0581 24.4363 35.6524 25.3847C35.6043 25.4972 35.5663 25.6141 35.5235 25.7292C35.5886 25.8808 35.5321 26.0207 35.4743 26.1558C34.7553 27.8397 34.0452 29.5274 33.3118 31.205C33.2772 31.2842 33.2233 31.352 33.1869 31.4299C33.1598 31.4972 33.1216 31.5606 33.1143 31.6351C32.5361 33.0689 31.8852 34.4725 31.2874 35.9573C35.0173 34.4488 38.6929 32.9386 42.3794 31.4562C44.9438 30.4017 47.5187 29.3733 50.0838 28.321C50.2595 28.249 50.4659 28.1067 50.6301 28.2665C50.7974 28.4289 50.6542 28.6388 50.5855 28.8157C50.2751 29.6158 49.9529 30.4115 49.6394 31.2107C49.5895 31.3375 49.524 31.4537 49.4485 31.5656C49.4026 31.6261 49.3489 31.6792 49.2931 31.7305Z" fill="#ED1C24"/>
<path fill-rule="evenodd" clip-rule="evenodd" d="M40.2168 49.0092C40.164 49.5447 40.016 50.0634 39.9131 50.59C39.7162 51.5964 39.5031 52.6003 39.295 53.6052C39.2826 53.6642 39.2551 53.7207 39.2348 53.7783C37.5633 53.7512 35.992 54.1264 34.5007 54.8466C33.8095 55.1804 33.1135 55.5101 32.3579 55.6947C30.7787 56.081 29.2357 56.0061 27.7503 55.3289C27.2004 55.0782 26.665 54.797 26.1286 54.5199C24.7208 53.7918 23.2217 53.6216 21.6577 53.8178C19.689 54.0646 17.8825 54.7508 16.166 55.6837C16.046 55.749 15.9263 55.8148 15.8082 55.8792C15.7015 55.8108 15.7461 55.7172 15.7459 55.6411C15.7431 54.1608 15.749 52.6802 15.7383 51.1999C15.7366 50.9726 15.8137 50.8518 16.0222 50.7499C18.0832 49.7438 20.2479 49.076 22.5639 48.9507C24.3425 48.8546 26.0536 49.1617 27.6641 49.9217C28.0855 50.1207 28.5076 50.3185 28.9321 50.5114C29.8801 50.9417 30.8522 51.0099 31.8605 50.7169C32.5666 50.5115 33.2481 50.2464 33.9333 49.9894C35.0834 49.5581 36.2516 49.1948 37.4814 49.0387C38.3926 48.9229 39.3035 48.8948 40.2168 49.0092Z" fill="#00AEEF"/>
<path fill-rule="evenodd" clip-rule="evenodd" d="M33.2251 30.4044C34.0373 28.4899 34.8497 26.5757 35.6619 24.6615C36.6005 24.5088 37.5397 24.4093 38.4945 24.491C39.5587 24.5822 40.5735 24.864 41.5704 25.234C42.4832 25.5726 43.3783 25.9643 44.3261 26.1983C45.3405 26.4486 46.3616 26.5566 47.3963 26.3235C47.7433 26.2452 48.0706 26.1179 48.3815 25.9449C48.4881 25.8852 48.5996 25.8309 48.696 25.7572C50.0914 24.6891 51.696 24.4054 53.3884 24.4601C54.7953 24.5055 56.1705 24.7282 57.4828 25.2731C58.0816 25.5217 58.6481 25.8302 59.1716 26.2202C59.3606 26.3612 59.4535 26.514 59.451 26.7728C59.4359 28.2356 59.4444 29.6985 59.4419 31.1614C59.4417 31.2549 59.4715 31.3554 59.4148 31.4463C59.2967 31.4615 59.2398 31.3657 59.1656 31.3115C57.2814 29.9341 55.1804 29.2796 52.8638 29.3729C52.015 29.4069 51.2096 29.6396 50.4654 30.0679C50.1481 30.2504 49.8353 30.4405 49.5202 30.6274C49.4467 30.6517 49.4229 30.6141 49.4229 30.5466C49.8444 29.4567 50.266 28.3667 50.7111 27.2154C50.5176 27.2886 50.3759 27.3379 50.2373 27.395C47.7739 28.409 45.3111 29.4243 42.8477 30.4381C42.736 30.4842 42.6291 30.5476 42.5039 30.5524C42.2176 30.5511 41.9636 30.4455 41.7082 30.3219C40.2093 29.5964 38.6273 29.4187 36.9876 29.558C35.8325 29.6562 34.7523 29.994 33.7069 30.479C33.585 30.5355 33.4592 30.5844 33.3198 30.5453C33.2598 30.5181 33.2107 30.4833 33.2251 30.4044Z" fill="#00AEEF"/>
<path fill-rule="evenodd" clip-rule="evenodd" d="M40.2168 54.1164C40.5541 53.2653 40.8886 52.4131 41.23 51.5635C41.4482 51.0198 41.6764 50.48 41.9001 49.9385C42.8362 50.288 43.7708 50.6424 44.7653 50.8026C45.5023 50.9213 46.2411 50.9546 46.9806 50.8298C47.3848 50.7616 47.7715 50.6351 48.1336 50.4422C48.2641 50.3727 48.4006 50.3094 48.5182 50.2218C49.9365 49.1668 51.5677 48.8854 53.2882 48.9401C54.7183 48.9858 56.1163 49.2051 57.45 49.744C58.0587 49.9899 58.6342 50.2949 59.166 50.6803C59.3582 50.8194 59.4536 50.9696 59.451 51.2258C59.4356 52.6814 59.4436 54.1376 59.4436 55.5934V55.837C59.318 55.884 59.2664 55.7966 59.2021 55.7501C57.3224 54.3852 55.2149 53.7292 52.8864 53.7879C51.9318 53.8121 51.0333 54.0661 50.2061 54.5472C49.8544 54.7518 49.5064 54.9621 49.1523 55.1622C48.2987 55.6448 47.3787 55.8754 46.3957 55.9194C45.0288 55.9805 43.7452 55.711 42.529 55.0953C41.7816 54.7167 41.0338 54.3358 40.2168 54.1164Z" fill="#00AEEF"/>
<path fill-rule="evenodd" clip-rule="evenodd" d="M43.7139 43.4838C44.3605 41.9218 45.0067 40.3595 45.6543 38.7978C45.6777 38.7414 45.7131 38.6899 45.7426 38.6359C46.5592 38.6556 47.3119 38.4493 48.0079 38.0448C48.1503 37.9621 48.2962 37.8839 48.4322 37.7921C49.4133 37.1304 50.5159 36.7988 51.7008 36.7272C53.5196 36.6173 55.3095 36.7643 57.0374 37.3691C57.8235 37.6442 58.5651 37.9982 59.2339 38.4865C59.3759 38.5899 59.4519 38.7007 59.451 38.8842C59.4433 40.4318 59.4464 41.9796 59.4452 43.5271C59.4452 43.5497 59.4353 43.5725 59.4297 43.5969C59.3192 43.6495 59.2688 43.5532 59.2031 43.5075C57.1226 42.0579 54.8027 41.3976 52.2333 41.5804C51.4713 41.6346 50.7502 41.8487 50.08 42.2031C49.7103 42.3987 49.3454 42.6037 48.9846 42.8142C47.7327 43.5437 46.3691 43.7719 44.9265 43.6617C44.5172 43.6303 44.1098 43.5952 43.7139 43.4838Z" fill="#00AEEF"/>
<path fill-rule="evenodd" clip-rule="evenodd" d="M27.9768 25.7936C27.7979 26.5223 27.5465 27.2292 27.3226 27.9442C27.0582 28.7882 26.8224 29.6419 26.5147 30.4722C25.9551 30.1916 25.4124 29.8755 24.8194 29.6661C23.716 29.2766 22.5833 29.2389 21.4377 29.3911C19.5229 29.6458 17.7652 30.3501 16.0945 31.2995C16.0091 31.3479 15.925 31.399 15.8381 31.4443C15.8203 31.4535 15.7922 31.4426 15.7666 31.4408C15.7203 31.3486 15.7435 31.249 15.7435 31.1533C15.7416 29.6931 15.7477 28.2331 15.7369 26.7733C15.735 26.5336 15.7942 26.3999 16.0194 26.2852C17.7542 25.4017 19.5749 24.7878 21.5046 24.5439C23.5637 24.2836 25.5441 24.5799 27.4141 25.52C27.6004 25.6136 27.7892 25.7026 27.9768 25.7936Z" fill="#00AEEF"/>
<path fill-rule="evenodd" clip-rule="evenodd" d="M24.4797 36.8445C24.3296 37.5031 24.101 38.1373 23.9064 38.7822C23.6268 39.7091 23.3302 40.6311 23.041 41.5553C21.4374 41.4565 19.9114 41.8146 18.4236 42.3887C17.6008 42.7057 16.8107 43.0959 16.0507 43.5494C15.9693 43.598 15.8864 43.6435 15.8086 43.6879C15.7037 43.616 15.7447 43.5217 15.7447 43.4445C15.742 41.9481 15.7436 40.4515 15.7413 38.9551C15.7409 38.7903 15.7424 38.6564 15.9227 38.5626C18.0287 37.4683 20.2309 36.7405 22.6124 36.6958C23.2384 36.6841 23.8631 36.7193 24.4797 36.8445Z" fill="#00AEEF"/>
<path fill-rule="evenodd" clip-rule="evenodd" d="M27.9768 43.6197C29.2928 43.0598 30.6074 42.4971 31.9248 41.9401C34.595 40.8113 37.2666 39.6851 39.9376 38.5579C40.0288 38.5198 40.1199 38.4818 40.2141 38.4422C40.2554 38.6949 39.8008 41.0677 39.5708 41.8259C37.2445 41.3645 34.9877 41.5197 32.8214 42.5142C32.0654 42.8612 31.3214 43.2403 30.5039 43.445C29.674 43.653 28.8348 43.7706 27.9768 43.6197Z" fill="#00AEEF"/>
<path fill-rule="evenodd" clip-rule="evenodd" d="M35.21 66.4193C35.2482 66.5361 35.2751 66.6582 35.4072 66.7355C35.4224 66.9413 35.2682 67.1055 35.2048 67.2923C34.8686 67.3099 34.9794 67.1429 35.0285 67.0013C35.0502 66.799 35.0476 66.5914 35.21 66.4193Z" fill="#F04020"/>
<path fill-rule="evenodd" clip-rule="evenodd" d="M35.1631 66.4193C35.1985 66.5443 35.2173 66.6772 35.3405 66.7601C35.2863 66.9305 35.2317 67.1013 35.1775 67.2721C35.0131 67.3276 34.9445 67.2763 34.9803 67.1089C34.9987 66.8682 35.0079 66.6259 35.1631 66.4193Z" fill="#F57B18"/>
<path fill-rule="evenodd" clip-rule="evenodd" d="M35.1143 66.4193L35.3115 66.7056C35.2936 66.7908 35.2831 66.884 35.256 66.9603C35.2048 67.1072 35.1585 67.3582 35.0427 67.2782C34.9351 67.2026 34.9723 66.9537 35.0037 66.7805C35.0265 66.6528 35.0767 66.539 35.1143 66.4193Z" fill="#FAB60F"/>
<path fill-rule="evenodd" clip-rule="evenodd" d="M49.1043 31.448C49.1825 31.5118 49.2603 31.5752 49.3382 31.6386C49.2464 31.7701 49.1244 31.844 48.9596 31.8348C48.9635 31.6897 48.9622 31.542 49.1043 31.448Z" fill="#59B890"/>
<path fill-rule="evenodd" clip-rule="evenodd" d="M31.6562 30.732C32.343 30.4236 33.0281 30.11 33.7712 29.9505C35.996 29.4734 38.14 29.6453 40.1674 30.7327C40.1863 30.7428 40.2003 30.762 40.2167 30.7769C39.688 31.0294 39.135 31.2251 38.5913 31.4421C35.7545 32.5747 32.9156 33.7028 30.0775 34.8319C29.9731 34.8735 29.8667 34.9097 29.7706 34.9451C29.7194 34.9218 29.7195 34.889 29.7329 34.8586C30.3295 33.5013 30.9268 32.1444 31.524 30.7874C31.5529 30.734 31.6068 30.7385 31.6562 30.732Z" fill="#FFF200"/>
<path fill-rule="evenodd" clip-rule="evenodd" d="M33.5668 29.9311C33.4965 30.0823 33.3561 30.0683 33.225 30.0767C33.2097 29.9202 33.2657 29.7943 33.3907 29.6994C33.4493 29.7768 33.5083 29.8541 33.5668 29.9311Z" fill="#679C8E"/>
<mask id="mask1" mask-type="alpha" maskUnits="userSpaceOnUse" x="183" y="19" width="34" height="38">
<path d="M183.106 19.1956H216.823V56.001H183.106V19.1956Z" fill="white"/>
</mask>
<g mask="url(#mask1)">
<path fill-rule="evenodd" clip-rule="evenodd" d="M207.802 41.3932C207.802 40.1919 207.803 38.9903 207.802 37.7887C207.799 31.8169 207.795 25.8451 207.793 19.8737C207.793 19.1091 207.726 19.2069 208.452 19.206C211.022 19.2022 213.593 19.2045 216.164 19.2045C216.302 19.2045 216.441 19.2078 216.579 19.2066C216.755 19.2054 216.823 19.2994 216.82 19.4649C216.818 19.6224 216.822 19.7803 216.822 19.9379V55.2364C216.822 55.2956 216.822 55.3545 216.822 55.4137C216.819 56.0168 216.885 55.9906 216.247 55.9906C213.34 55.9906 210.433 55.9815 207.526 56.0012C207.104 56.0036 206.855 55.8772 206.614 55.5276C201.993 48.8211 197.358 42.1233 192.726 35.4244C192.561 35.187 192.393 34.9523 192.18 34.6501C192.053 34.9243 192.09 35.1381 192.091 35.3401C192.101 39.6562 192.115 43.9719 192.126 48.2874C192.132 50.6329 192.133 52.9781 192.136 55.3235C192.136 55.4614 192.132 55.5992 192.135 55.7373C192.14 55.9079 192.062 55.9909 191.89 55.9888C191.771 55.9874 191.653 55.9906 191.534 55.9906H183.703C183.584 55.9906 183.466 55.9862 183.347 55.99C183.169 55.9953 183.103 55.9043 183.108 55.7367C183.112 55.5989 183.107 55.4611 183.107 55.323C183.107 43.5175 183.106 31.7118 183.108 19.9063C183.108 19.0994 183.033 19.2072 183.793 19.206C186.423 19.2019 189.053 19.2128 191.683 19.1957C192.082 19.193 192.317 19.315 192.547 19.6466C197.468 26.7455 202.403 33.8349 207.336 40.9258C207.456 41.099 207.583 41.2672 207.708 41.4377C207.739 41.423 207.77 41.4082 207.802 41.3932Z" fill="#00AEEF"/>
</g>
<path fill-rule="evenodd" clip-rule="evenodd" d="M140.398 37.5782V20.0688C140.398 19.9701 140.398 19.8713 140.398 19.7729C140.392 19.0746 140.446 19.1954 140.951 19.1951C143.465 19.1928 145.979 19.1939 148.494 19.1939C148.607 19.1939 148.72 19.1948 148.834 19.1978C148.971 19.2013 149.039 19.2809 149.042 19.4199C149.045 19.5973 149.046 19.7747 149.046 19.9524C149.046 29.0816 149.046 38.2108 149.046 47.3403C149.046 47.439 149.046 47.5374 149.046 47.6361C149.044 48.3615 149.035 48.277 149.656 48.2773C154.836 48.2782 160.016 48.2764 165.196 48.279C165.986 48.2793 165.878 48.1868 165.88 49.0086C165.885 51.1183 165.882 53.2283 165.881 55.338C165.881 55.4759 165.876 55.6144 165.88 55.7523C165.885 55.9264 165.804 56.0004 165.641 55.9969C165.509 55.9936 165.376 55.998 165.244 55.998C157.172 55.998 149.099 55.9989 141.027 55.9966C140.346 55.9966 140.398 56.0994 140.398 55.3245C140.397 49.4087 140.398 43.4936 140.398 37.5782Z" fill="#00AEEF"/>
<mask id="mask2" mask-type="alpha" maskUnits="userSpaceOnUse" x="97" y="19" width="32" height="37">
<path d="M97.9197 19.1954H128.851V55.9954H97.9197V19.1954Z" fill="white"/>
</mask>
<g mask="url(#mask2)">
<path fill-rule="evenodd" clip-rule="evenodd" d="M119.208 33.1758C118.726 35.511 117.222 36.8201 114.764 36.8878C112.395 36.9523 110.024 36.8973 107.653 36.9096C107.311 36.9114 107.247 36.7742 107.249 36.4849C107.26 34.9482 107.254 33.4108 107.254 31.8738C107.254 30.3959 107.252 28.9178 107.255 27.4397C107.256 26.9537 107.263 26.9446 107.755 26.944C110.085 26.9405 112.414 26.9251 114.744 26.9472C117.291 26.9711 118.969 28.4377 119.266 30.8801C119.359 31.6444 119.365 32.4142 119.208 33.1758ZM128.53 28.8501C128.102 26.6801 127.197 24.7163 125.672 23.052C123.264 20.4238 120.168 19.237 116.591 19.2152C110.604 19.1783 104.617 19.2037 98.6301 19.2063C97.8456 19.2066 97.9232 19.1 97.9228 19.9067C97.9207 25.7986 97.9216 31.6906 97.9216 37.5826V55.1987C97.9216 55.3563 97.9283 55.5144 97.9207 55.6717C97.9109 55.8817 97.9674 56.0189 98.2252 55.9921C98.3263 55.9815 98.4292 55.9912 98.5315 55.9912H106.623C106.746 55.9912 106.868 55.9871 106.991 55.9895C107.165 55.9927 107.257 55.9211 107.253 55.7456C107.249 55.5883 107.254 55.4302 107.254 55.2726C107.254 51.9623 107.254 48.6517 107.254 45.3414C107.254 45.1836 107.26 45.0257 107.255 44.8685C107.25 44.6918 107.342 44.6234 107.516 44.6281C107.659 44.6317 107.802 44.6276 107.945 44.6276C110.704 44.6276 113.462 44.627 116.22 44.6279C116.834 44.6281 117.444 44.609 118.054 44.5318C122.687 43.9449 125.938 41.5806 127.739 37.4353C128.941 34.6705 129.108 31.7816 128.53 28.8501Z" fill="#00AEEF"/>
</g>
</svg>
